<svg width="10" height="6" viewBox="0 0 10 6" fill="none" xmlns="http://www.w3.org/2000/svg">
<path d="M5.33447 5.20662L9.14879 1.37353C9.23708 1.28487 9.28572 1.16653 9.28572 1.04034C9.28572 0.914149 9.23708 0.795803 9.14879 0.707148L8.86796 0.424867C8.68496 0.241185 8.38754 0.241185 8.20483 0.424867L5.00179 3.64361L1.79519 0.421295C1.7069 0.332641 1.5892 0.283691 1.4637 0.283691C1.33805 0.283691 1.22035 0.332641 1.13199 0.421295L0.851226 0.703576C0.762934 0.792301 0.714294 0.910577 0.714294 1.03677C0.714294 1.16296 0.762934 1.2813 0.851226 1.36996L4.66904 5.20662C4.75761 5.29549 4.87586 5.3443 5.00158 5.34402C5.12778 5.3443 5.24597 5.29549 5.33447 5.20662Z" fill="#2C7DFA"/>
</svg>
