<svg width="14" height="11" viewBox="0 0 14 11" fill="none" xmlns="http://www.w3.org/2000/svg">
<mask id="mask0_249_730" style="mask-type:alpha" maskUnits="userSpaceOnUse" x="0" y="0" width="14" height="11">
<path d="M12.6667 0.789307H1.33333C0.596954 0.789307 0 1.38919 0 2.12918V9.49846C0 10.2384 0.596954 10.8383 1.33333 10.8383H12.6667C13.403 10.8383 14 10.2384 14 9.49846V2.12918C14 1.38919 13.403 0.789307 12.6667 0.789307Z" fill="white"/>
</mask>
<g mask="url(#mask0_249_730)">
<path d="M12.6667 0.789307H1.33333C0.596954 0.789307 0 1.38919 0 2.12918V9.49846C0 10.2384 0.596954 10.8383 1.33333 10.8383H12.6667C13.403 10.8383 14 10.2384 14 9.49846V2.12918C14 1.38919 13.403 0.789307 12.6667 0.789307Z" fill="#FFDA00"/>
<path fill-rule="evenodd" clip-rule="evenodd" d="M0 0.789307H14V6.14878H0V0.789307Z" fill="#0266C3"/>
<path d="M12.6666 1.12427H1.33331C0.781028 1.12427 0.333313 1.57418 0.333313 2.12917V9.49845C0.333313 10.0534 0.781028 10.5034 1.33331 10.5034H12.6666C13.2189 10.5034 13.6666 10.0534 13.6666 9.49845V2.12917C13.6666 1.57418 13.2189 1.12427 12.6666 1.12427Z" stroke="black" stroke-opacity="0.1" stroke-width="0.666667"/>
</g>
</svg>
